<svg xmlns="http://www.w3.org/2000/svg" viewBox="0 0 300 320" fill="none">
  <defs>
    <linearGradient id="sacGP" x1="60" y1="40" x2="240" y2="300" gradientUnits="userSpaceOnUse">
      <stop stop-color="#eaf6fc"/><stop offset="1" stop-color="#cbe9f6"/>
    </linearGradient>
    <linearGradient id="ecl" x1="0" y1="0" x2="1" y2="1"><stop stop-color="#fff"/><stop offset="1" stop-color="#a6d9ef"/></linearGradient>
  </defs>
  <path d="M78 70c0-10 20-16 72-16s72 6 72 16l14 210c1 16-30 30-86 30s-87-14-86-30L78 70z" fill="url(#sacGP)" stroke="#a6d9ef" stroke-width="3"/>
  <path d="M78 70c0-10 20-16 72-16s72 6 72 16c0 10-30 18-72 18s-72-8-72-18z" fill="#e7f4fb" stroke="#a6d9ef" stroke-width="3"/>
  <rect x="120" y="46" width="60" height="18" rx="6" fill="#c3ccd4"/>
  <!-- éclats de glace pilée -->
  <g opacity="0.92" fill="url(#ecl)">
    <path d="M104 116l16-6 10 14-12 12-16-8 2-12z"/>
    <path d="M142 108l18-4 8 16-14 10-14-10 2-12z"/>
    <path d="M182 120l16-2 6 14-14 8-12-10 -2-10 0 0z"/>
    <path d="M116 150l18-4 8 14-14 10-14-8 2-12z"/>
    <path d="M158 146l20-2 6 16-16 8-12-12 2-10z"/>
    <path d="M126 190l16-4 8 14-12 10-14-8 2-12z"/>
    <path d="M164 188l18-2 6 14-14 8-12-10 2-10z"/>
    <path d="M118 224l14-2 8 12-12 8-12-8 2-10z"/>
    <path d="M156 222l16-2 6 14-14 6-10-10 2-8z"/>
  </g>
  <rect x="104" y="252" width="92" height="40" rx="10" fill="#38a3d4"/>
  <text x="150" y="278" text-anchor="middle" font-family="Poppins, sans-serif" font-weight="700" font-size="19" fill="#fff">ICE LAB</text>
</svg>
